<svg xmlns="http://www.w3.org/2000/svg" viewBox="0 0 70.48 59.98"><defs><style>.cls-1{isolation:isolate;}.cls-2{fill:none;}.cls-3{fill:#e3172c;}.cls-4{fill:#ffd400;}.cls-5{fill:#f46036;}.cls-6{fill:#3fa9f5;}.cls-7{opacity:0.12;mix-blend-mode:multiply;}.cls-8{fill:#fff;}</style></defs><title>資產 3</title><g class="cls-1"><g id="圖層_2" data-name="圖層 2"><g id="圖層_2-2" data-name="圖層 2"><path class="cls-2" d="M23.52,47.17H15.3a.6.6,0,0,0-.47.23.82.82,0,0,0-.2.55v5.13h9.56V48a.82.82,0,0,0-.2-.55A.6.6,0,0,0,23.52,47.17Z"/><path class="cls-3" d="M17.5,6a.67.67,0,0,0,1.09-.52.41.41,0,0,1,.71-.27L35.6,22.83a.4.4,0,0,1,.09.38L31.13,40.37a.41.41,0,0,0,.78.26l7-16.56a.4.4,0,0,0-.09-.44C38.1,22.91,34.77,19.38,19.41,2,17.26.22,16.68,4,16.57,5a.41.41,0,0,0,.15.36Z"/><path class="cls-4" d="M25.94,4.8a.48.48,0,0,0,.82-.34.48.48,0,0,1,.85-.31L43.7,22.33a.47.47,0,0,1,.06.55L34.14,39.6a.48.48,0,0,0,.81.52L47.77,23.31a.47.47,0,0,0,0-.61L26.94.16A.49.49,0,0,0,26.4,0c-1.08.47-1.24,3-1.26,3.76a.47.47,0,0,0,.14.35Z"/><path class="cls-5" d="M33.79,5.8a.44.44,0,0,0,.78-.13l.32-1.17a.44.44,0,0,1,.75-.18L51.88,22.18a.43.43,0,0,1,0,.58L37,39a.43.43,0,0,0,.62.6L55.41,23.21a.56.56,0,0,0,0-.8L34.64.51c-1.1-1.06-1.81,2.64-2,3.49a.42.42,0,0,0,.07.31Z"/><path class="cls-6" d="M29.75,40.41l3.93-15.75a.83.83,0,0,0-.22-.79L17.35,7.21a.38.38,0,0,0-.63.13L12.49,22.87a.39.39,0,0,0,.1.37l16.2,17.37A.58.58,0,0,0,29.75,40.41ZM21.2,25.22a1.37,1.37,0,0,1-1.91.24l-3.62-2.77a1.34,1.34,0,0,1-.24-1.88,1.37,1.37,0,0,1,1.91-.24L21,23.34A1.34,1.34,0,0,1,21.2,25.22Z"/><polygon points="0 59.98 1.39 59.98 1.39 53.59 9.32 53.59 9.32 51.95 1.39 51.95 1.39 47.17 11.25 47.17 11.25 45.55 0 45.55 0 59.98"/><path d="M23.52,45.55H15.3a1.85,1.85,0,0,0-1.46.7,2.53,2.53,0,0,0-.6,1.7V60h1.39V54.71h9.56V60h1.39V48a2.53,2.53,0,0,0-.6-1.7A1.85,1.85,0,0,0,23.52,45.55Zm.67,7.54H14.63V48a.82.82,0,0,1,.2-.55.6.6,0,0,1,.47-.23h8.22a.6.6,0,0,1,.47.23.82.82,0,0,1,.2.55Z"/><polygon points="39.33 58.14 30.28 45.55 28.38 45.55 28.38 59.98 29.77 59.98 29.77 47.39 38.81 59.98 40.72 59.98 40.72 45.55 39.33 45.55 39.33 58.14"/><path d="M44.09,46.25a2.53,2.53,0,0,0-.6,1.7v9.62a2.53,2.53,0,0,0,.6,1.7,1.85,1.85,0,0,0,1.46.7H55.79V58.36H45.54a.6.6,0,0,1-.47-.23.82.82,0,0,1-.2-.55V48a.82.82,0,0,1,.2-.55.6.6,0,0,1,.47-.23H55.79V45.55H45.54A1.85,1.85,0,0,0,44.09,46.25Z"/><polygon points="68.86 45.55 64.13 52.61 59.35 45.55 57.76 45.55 63.43 54.55 63.43 59.98 64.81 59.98 64.81 54.55 70.48 45.55 68.86 45.55"/><g class="cls-7"><path d="M18.31,19.88c-.61-.52-1.46,0-1.89.8a1.47,1.47,0,0,0,.23,2c1.16.95,2.44,2.48,3.68,3.48.61.52,1.46,0,1.89-.8a1.47,1.47,0,0,0-.23-2C20.83,22.42,19.55,20.89,18.31,19.88Z"/></g><path class="cls-8" d="M17.31,19.88c-.61-.52-1.46,0-1.89.8a1.47,1.47,0,0,0,.23,2c1.16.95,2.44,2.48,3.68,3.48.61.52,1.46,0,1.89-.8a1.47,1.47,0,0,0-.23-2C19.83,22.42,18.55,20.89,17.31,19.88Z"/></g></g></g></svg>